# xmcd
# 
# Track frame offsets:
#     150
#     22452
#     40466
#     63055
#     79586
#     93952
#     113315
#     126470
#     151883
#     183690
#     201243
#     216286
#     231936
#     247098
#     267344
#     281975
#     299624
#     315591
#     334589
# 
# Disc length: 4728
# 
# Revision: 1
# Processed by: cddbd v1.5.2PL0 Copyright (c) Steve Scherf et al.
# Submitted via: fre:ac v1.0.31
# 
DISCID=25127613
DTITLE=Southside Johnny And The Asbury Jukes - The Fever - The Remastered Epic Recordings Disc 2
DYEAR=2017
DGENRE=Rock/Pop
TTITLE0=Got To Get You Off My Mind
TTITLE1=Without Love
TTITLE2=Searchin'
TTITLE3=Sweeter Than Honey
TTITLE4=Snatchin' It Back
TTITLE5=Little By Little
TTITLE6=It Ain't The Meat It's The Motion
TTITLE7=The Fever
TTITLE8=Havin' A Party
TTITLE9=You Mean So Much To Me
TTITLE10=Got To Be A Better Way Home
TTITLE11=This Time Baby's Gone For Good
TTITLE12=I Played The Fool
TTITLE13=Hearts Of Stone
TTITLE14=Take It Inside
TTITLE15=Talk To Me
TTITLE16=Next To  You
TTITLE17=Trapped Agian
TTITLE18=Light Don't Shine
EXTD=
EXTT0=
EXTT1=
EXTT2=
EXTT3=
EXTT4=
EXTT5=
EXTT6=
EXTT7=
EXTT8=
EXTT9=
EXTT10=
EXTT11=
EXTT12=
EXTT13=
EXTT14=
EXTT15=
EXTT16=
EXTT17=
EXTT18=
PLAYORDER=
